# xmcd
#
# Track frame offsets: 
#        150
#        17650
#        29445
#        44595
#        60845
#        76832
#        96157
#        114422
#        130222
#        148542
#        165367
#
# Disc length: 2664 seconds
#
# Revision: 0
# Processed by: cddbd v1.5.2PL0 Copyright (c) Steve Scherf et al.
# Submitted via: ExactAudioCopyFreeDBPlugin 1.0
#
DISCID=820a660b
DTITLE=Shanley - The Other Side
DYEAR=2001
DGENRE=Country
TTITLE0=The Other Side Of Love
TTITLE1=Long Story Short
TTITLE2=Sleep
TTITLE3=All I Want
TTITLE4=Lonely Child
TTITLE5=Glass Heart
TTITLE6=Break The Club
TTITLE7=Kissed It Better
TTITLE8=Sweet Downfall
TTITLE9=Just Like You
TTITLE10=Last Thing I Wanted
EXTD=
EXTT0=
EXTT1=
EXTT2=
EXTT3=
EXTT4=
EXTT5=
EXTT6=
EXTT7=
EXTT8=
EXTT9=
EXTT10=
PLAYORDER=
